<svg width="138" height="35" viewBox="0 0 138 35" fill="none" xmlns="http://www.w3.org/2000/svg">
<path d="M1.36725 18.184C1.68725 17.672 2.07125 17.1813 2.51925 16.712C2.98858 16.2213 3.46858 15.752 3.95925 15.304C4.47125 14.856 4.97258 14.4293 5.46325 14.024C5.97525 13.6187 6.45525 13.224 6.90325 12.84L12.6633 15.912C12.7273 15.2293 12.7273 14.5253 12.6633 13.8C12.5993 13.0747 12.4499 12.3813 12.2153 11.72C11.9806 11.0373 11.6393 10.4293 11.1913 9.896C10.7646 9.34133 10.2206 8.89333 9.55925 8.552C8.83392 8.168 8.04458 7.976 7.19125 7.976C6.44458 7.976 5.72992 8.14667 5.04725 8.488C4.38592 8.82933 3.84192 9.352 3.41525 10.056H1.65525C2.25258 9.096 3.02058 8.392 3.95925 7.944C4.91925 7.47467 5.94325 7.24 7.03125 7.24C8.20458 7.24 9.34592 7.50667 10.4553 8.04C11.5859 8.552 12.4926 9.29867 13.1753 10.28C13.7299 10.984 14.0713 11.784 14.1993 12.68C14.3486 13.576 14.4339 14.4613 14.4553 15.336V23.432L16.5673 22.28V22.824C16.3326 22.952 16.0446 23.112 15.7033 23.304C15.3833 23.4747 15.0419 23.656 14.6793 23.848C14.3379 24.0187 13.9966 24.1893 13.6553 24.36C13.3353 24.5307 13.0579 24.68 12.8233 24.808V21.448C12.0979 22.6 11.1593 23.4747 10.0073 24.072C8.85525 24.6693 7.56458 24.9573 6.13525 24.936C5.45258 24.936 4.78058 24.8507 4.11925 24.68C3.45792 24.488 2.87125 24.1787 2.35925 23.752C1.93258 23.432 1.56992 23.048 1.27125 22.6C0.993917 22.152 0.801917 21.6827 0.69525 21.192C0.609917 20.7013 0.609917 20.2 0.69525 19.688C0.801917 19.1547 1.02592 18.6533 1.36725 18.184ZM12.6633 16.424L8.24725 14.024C8.05525 14.216 7.78858 14.4613 7.44725 14.76C7.12725 15.0587 6.79658 15.368 6.45525 15.688C6.11392 16.008 5.77258 16.3173 5.43125 16.616C5.11125 16.8933 4.85525 17.1173 4.66325 17.288C3.57525 18.2053 2.89258 19.1013 2.61525 19.976C2.33792 20.8293 2.32725 21.5973 2.58325 22.28C2.83925 22.9413 3.29792 23.4853 3.95925 23.912C4.64192 24.3173 5.39925 24.52 6.23125 24.52C7.21258 24.52 8.09792 24.264 8.88725 23.752C9.67658 23.24 10.3486 22.5893 10.9033 21.8C11.4793 21.0107 11.9166 20.1467 12.2153 19.208C12.5139 18.248 12.6633 17.32 12.6633 16.424ZM21.0645 7.912C22.0032 7.50667 22.9952 7.304 24.0405 7.304C24.9152 7.304 25.7472 7.47467 26.5365 7.816C27.3258 8.15733 27.9338 8.72267 28.3605 9.512C28.7872 10.2587 28.8938 11.048 28.6805 11.88C28.4672 12.6907 28.0512 13.3947 27.4325 13.992C26.9845 14.4613 26.4618 14.952 25.8645 15.464C25.2672 15.9547 24.6805 16.392 24.1045 16.776C23.6992 17.0747 23.3365 17.3307 23.0165 17.544C22.7178 17.7573 22.4192 17.9813 22.1205 18.216C22.0778 18.2587 22.0352 18.2907 21.9925 18.312C21.9712 18.3333 21.9392 18.3547 21.8965 18.376C21.8752 18.3973 21.8538 18.4187 21.8325 18.44L19.4325 17.352C19.4752 18.2907 19.6565 19.1867 19.9765 20.04C20.2965 20.872 20.7338 21.608 21.2885 22.248C21.8432 22.888 22.5045 23.4107 23.2725 23.816C24.0405 24.2213 24.8938 24.456 25.8325 24.52C26.4725 24.52 27.0592 24.3813 27.5925 24.104C28.1258 23.8053 28.5845 23.4213 28.9685 22.952C29.3738 22.4827 29.6938 21.9707 29.9285 21.416C30.1845 20.84 30.3338 20.2853 30.3765 19.752L31.8165 20.36C31.6032 21.0853 31.2832 21.736 30.8565 22.312C30.4298 22.888 29.9285 23.3787 29.3525 23.784C28.7978 24.168 28.1792 24.4667 27.4965 24.68C26.8138 24.872 26.1098 24.968 25.3845 24.968C24.2112 24.968 23.1445 24.744 22.1845 24.296C21.2458 23.848 20.4352 23.24 19.7525 22.472C19.0912 21.704 18.5792 20.808 18.2165 19.784C17.8538 18.76 17.6725 17.6827 17.6725 16.552L15.9445 15.688C15.9018 13.9173 16.3392 12.3493 17.2565 10.984C18.1952 9.61867 19.4645 8.59467 21.0645 7.912ZM17.6725 16.104L20.6485 17.416C21.0965 17.0533 21.5978 16.6693 22.1525 16.264C22.7285 15.8587 23.2938 15.4427 23.8485 15.016C24.4245 14.568 24.9578 14.1093 25.4485 13.64C25.9392 13.1707 26.3445 12.6907 26.6645 12.2C27.0058 11.7093 27.1658 11.208 27.1445 10.696C27.1445 10.1627 27.0165 9.68267 26.7605 9.256C26.5045 8.82933 26.1418 8.47733 25.6725 8.2C25.2032 7.90133 24.6592 7.752 24.0405 7.752C23.4218 7.77333 22.8245 7.912 22.2485 8.168C21.6725 8.424 21.1392 8.75467 20.6485 9.16C20.1792 9.56533 19.7525 10.0347 19.3685 10.568C18.9845 11.08 18.6645 11.6133 18.4085 12.168C18.0458 12.872 17.8325 13.5547 17.7685 14.216C17.7045 14.856 17.6725 15.4853 17.6725 16.104ZM31.9438 14.184C31.9438 13.2667 32.0718 12.4027 32.3278 11.592C32.5838 10.76 32.9678 10.0347 33.4798 9.416C33.9918 8.79733 34.6211 8.30667 35.3678 7.944C36.1358 7.58133 37.0104 7.4 37.9918 7.4C38.7598 7.4 39.5278 7.528 40.2958 7.784C41.0638 8.04 41.7571 8.41333 42.3758 8.904C43.0158 9.39467 43.5598 10.0027 44.0078 10.728C44.4771 11.432 44.7971 12.2427 44.9678 13.16V14.632C44.8184 13.864 44.5518 13.128 44.1678 12.424C43.8051 11.72 43.3464 11.0907 42.7918 10.536C42.2584 9.98133 41.6291 9.53333 40.9038 9.192C40.1998 8.85067 39.4424 8.66933 38.6318 8.648C37.9491 8.62667 37.3091 8.76533 36.7118 9.064C36.1144 9.34133 35.5918 9.72533 35.1438 10.216C34.7171 10.7067 34.3864 11.2827 34.1518 11.944C33.9171 12.584 33.8104 13.2453 33.8318 13.928C33.8318 15.144 34.0344 16.2747 34.4398 17.32C34.8664 18.344 35.4211 19.368 36.1038 20.392L38.6638 23.912L44.9678 20.616V21.128L37.4798 25.064C37.0531 24.5733 36.6478 24.072 36.2638 23.56C35.8798 23.048 35.4424 22.4827 34.9518 21.864C34.0984 20.7333 33.3944 19.5387 32.8398 18.28C32.2851 17.0213 31.9864 15.656 31.9438 14.184ZM47.836 18.184C48.156 17.672 48.54 17.1813 48.988 16.712C49.4573 16.2213 49.9373 15.752 50.428 15.304C50.94 14.856 51.4413 14.4293 51.932 14.024C52.444 13.6187 52.924 13.224 53.372 12.84L59.132 15.912C59.196 15.2293 59.196 14.5253 59.132 13.8C59.068 13.0747 58.9187 12.3813 58.684 11.72C58.4493 11.0373 58.108 10.4293 57.66 9.896C57.2333 9.34133 56.6893 8.89333 56.028 8.552C55.3027 8.168 54.5133 7.976 53.66 7.976C52.9133 7.976 52.1987 8.14667 51.516 8.488C50.8547 8.82933 50.3107 9.352 49.884 10.056H48.124C48.7213 9.096 49.4893 8.392 50.428 7.944C51.388 7.47467 52.412 7.24 53.5 7.24C54.6733 7.24 55.8147 7.50667 56.924 8.04C58.0547 8.552 58.9613 9.29867 59.644 10.28C60.1987 10.984 60.54 11.784 60.668 12.68C60.8173 13.576 60.9027 14.4613 60.924 15.336V23.432L63.036 22.28V22.824C62.8013 22.952 62.5133 23.112 62.172 23.304C61.852 23.4747 61.5107 23.656 61.148 23.848C60.8067 24.0187 60.4653 24.1893 60.124 24.36C59.804 24.5307 59.5267 24.68 59.292 24.808V21.448C58.5667 22.6 57.628 23.4747 56.476 24.072C55.324 24.6693 54.0333 24.9573 52.604 24.936C51.9213 24.936 51.2493 24.8507 50.588 24.68C49.9267 24.488 49.34 24.1787 48.828 23.752C48.4013 23.432 48.0387 23.048 47.74 22.6C47.4627 22.152 47.2707 21.6827 47.164 21.192C47.0787 20.7013 47.0787 20.2 47.164 19.688C47.2707 19.1547 47.4947 18.6533 47.836 18.184ZM59.132 16.424L54.716 14.024C54.524 14.216 54.2573 14.4613 53.916 14.76C53.596 15.0587 53.2653 15.368 52.924 15.688C52.5827 16.008 52.2413 16.3173 51.9 16.616C51.58 16.8933 51.324 17.1173 51.132 17.288C50.044 18.2053 49.3613 19.1013 49.084 19.976C48.8067 20.8293 48.796 21.5973 49.052 22.28C49.308 22.9413 49.7667 23.4853 50.428 23.912C51.1107 24.3173 51.868 24.52 52.7 24.52C53.6813 24.52 54.5667 24.264 55.356 23.752C56.1453 23.24 56.8173 22.5893 57.372 21.8C57.948 21.0107 58.3853 20.1467 58.684 19.208C58.9827 18.248 59.132 17.32 59.132 16.424ZM70.136 7.88C70.2427 7.73067 70.328 7.61333 70.392 7.528C70.4773 7.42133 70.5413 7.34667 70.584 7.304L75.768 10.056V0.231998L77.336 1.128V17.032L79.64 15.784V16.36L75.768 18.376V10.536L71.896 8.456C71.3413 9.18133 70.7333 9.928 70.072 10.696C69.432 11.464 68.8347 12.264 68.28 13.096C67.7253 13.928 67.2667 14.8027 66.904 15.72C66.5627 16.616 66.4133 17.544 66.456 18.504C66.4347 19.2507 66.5627 19.9547 66.84 20.616C67.1387 21.256 67.5333 21.8213 68.024 22.312C68.5147 22.8027 69.0907 23.1867 69.752 23.464C70.4133 23.7413 71.096 23.8693 71.8 23.848C72.2907 23.8267 72.7493 23.688 73.176 23.432C73.6027 23.176 73.944 22.8347 74.2 22.408C74.456 21.9813 74.5947 21.4907 74.616 20.936C74.6373 20.3813 74.4773 19.8053 74.136 19.208L75.8 18.376C75.928 18.632 76.024 18.952 76.088 19.336C76.152 19.6987 76.1627 20.0827 76.12 20.488C76.0987 20.8933 76.0133 21.3093 75.864 21.736C75.736 22.1627 75.5333 22.5573 75.256 22.92C74.744 23.6453 74.0933 24.1893 73.304 24.552C72.5147 24.8933 71.6827 25.064 70.808 25.064C69.8907 25.064 69.0587 24.8933 68.312 24.552C67.5653 24.1893 66.9253 23.7093 66.392 23.112C65.8587 22.5147 65.432 21.8213 65.112 21.032C64.8133 20.2427 64.6427 19.4 64.6 18.504C64.5787 17.416 64.728 16.392 65.048 15.432C65.3893 14.472 65.8267 13.5653 66.36 12.712C66.8933 11.8373 67.4907 11.0053 68.152 10.216C68.8347 9.40533 69.496 8.62667 70.136 7.88ZM86.252 7.912C87.1907 7.50667 88.1827 7.304 89.228 7.304C90.1027 7.304 90.9347 7.47467 91.724 7.816C92.5133 8.15733 93.1213 8.72267 93.548 9.512C93.9747 10.2587 94.0813 11.048 93.868 11.88C93.6547 12.6907 93.2387 13.3947 92.62 13.992C92.172 14.4613 91.6493 14.952 91.052 15.464C90.4547 15.9547 89.868 16.392 89.292 16.776C88.8867 17.0747 88.524 17.3307 88.204 17.544C87.9053 17.7573 87.6067 17.9813 87.308 18.216C87.2653 18.2587 87.2227 18.2907 87.18 18.312C87.1587 18.3333 87.1267 18.3547 87.084 18.376C87.0627 18.3973 87.0413 18.4187 87.02 18.44L84.62 17.352C84.6627 18.2907 84.844 19.1867 85.164 20.04C85.484 20.872 85.9213 21.608 86.476 22.248C87.0307 22.888 87.692 23.4107 88.46 23.816C89.228 24.2213 90.0813 24.456 91.02 24.52C91.66 24.52 92.2467 24.3813 92.78 24.104C93.3133 23.8053 93.772 23.4213 94.156 22.952C94.5613 22.4827 94.8813 21.9707 95.116 21.416C95.372 20.84 95.5213 20.2853 95.564 19.752L97.004 20.36C96.7907 21.0853 96.4707 21.736 96.044 22.312C95.6173 22.888 95.116 23.3787 94.54 23.784C93.9853 24.168 93.3667 24.4667 92.684 24.68C92.0013 24.872 91.2973 24.968 90.572 24.968C89.3987 24.968 88.332 24.744 87.372 24.296C86.4333 23.848 85.6227 23.24 84.94 22.472C84.2787 21.704 83.7667 20.808 83.404 19.784C83.0413 18.76 82.86 17.6827 82.86 16.552L81.132 15.688C81.0893 13.9173 81.5267 12.3493 82.444 10.984C83.3827 9.61867 84.652 8.59467 86.252 7.912ZM82.86 16.104L85.836 17.416C86.284 17.0533 86.7853 16.6693 87.34 16.264C87.916 15.8587 88.4813 15.4427 89.036 15.016C89.612 14.568 90.1453 14.1093 90.636 13.64C91.1267 13.1707 91.532 12.6907 91.852 12.2C92.1933 11.7093 92.3533 11.208 92.332 10.696C92.332 10.1627 92.204 9.68267 91.948 9.256C91.692 8.82933 91.3293 8.47733 90.86 8.2C90.3907 7.90133 89.8467 7.752 89.228 7.752C88.6093 7.77333 88.012 7.912 87.436 8.168C86.86 8.424 86.3267 8.75467 85.836 9.16C85.3667 9.56533 84.94 10.0347 84.556 10.568C84.172 11.08 83.852 11.6133 83.596 12.168C83.2333 12.872 83.02 13.5547 82.956 14.216C82.892 14.856 82.86 15.4853 82.86 16.104ZM119.938 8.2L120.002 23.56L122.082 22.44V22.984L118.37 24.936C118.37 23.272 118.37 21.608 118.37 19.944C118.37 18.28 118.359 16.616 118.338 14.952C118.338 14.7173 118.306 14.4613 118.242 14.184C118.178 13.9067 118.103 13.6507 118.018 13.416C117.804 12.776 117.495 12.168 117.09 11.592C116.706 11.016 116.247 10.504 115.714 10.056C115.18 9.608 114.594 9.256 113.954 9C113.335 8.72267 112.674 8.584 111.97 8.584C111.202 8.584 110.519 8.73333 109.922 9.032C109.346 9.33067 108.844 9.736 108.418 10.248C108.012 10.7387 107.703 11.3147 107.49 11.976C107.276 12.616 107.17 13.288 107.17 13.992C107.17 14.9733 107.319 15.9013 107.618 16.776C107.938 17.6507 108.332 18.4933 108.802 19.304C109.292 20.1147 109.826 20.904 110.402 21.672C110.978 22.44 111.543 23.1973 112.098 23.944L110.818 25C110.732 24.8933 110.658 24.7973 110.594 24.712C110.53 24.6267 110.466 24.5307 110.402 24.424C109.826 23.592 109.239 22.7813 108.642 21.992C108.066 21.2027 107.543 20.4027 107.074 19.592C106.604 18.7813 106.22 17.9173 105.922 17C105.644 16.0827 105.506 15.08 105.506 13.992C105.506 13.096 105.644 12.2213 105.922 11.368C106.199 10.5147 106.647 9.75733 107.266 9.096C106.519 8.75467 105.74 8.584 104.93 8.584C104.226 8.584 103.586 8.73333 103.01 9.032C102.434 9.33067 101.943 9.72533 101.538 10.216C101.154 10.7067 100.844 11.272 100.61 11.912C100.396 12.5307 100.29 13.1707 100.29 13.832C100.29 14.856 100.439 15.816 100.738 16.712C101.036 17.5867 101.42 18.4293 101.89 19.24C102.359 20.0507 102.882 20.84 103.458 21.608C104.034 22.376 104.61 23.1547 105.186 23.944L103.906 25C103.82 24.8933 103.746 24.7973 103.682 24.712C103.618 24.6267 103.554 24.5307 103.49 24.424C102.892 23.5707 102.295 22.76 101.698 21.992C101.122 21.2027 100.599 20.4027 100.13 19.592C99.6818 18.76 99.3084 17.8853 99.0098 16.968C98.7324 16.0507 98.5938 15.0373 98.5938 13.928C98.5938 13.096 98.7218 12.2853 98.9778 11.496C99.2551 10.6853 99.6391 9.98133 100.13 9.384C100.642 8.76533 101.26 8.27467 101.986 7.912C102.711 7.528 103.522 7.336 104.418 7.336C105.143 7.336 105.751 7.4 106.242 7.528C106.732 7.63467 107.298 7.86933 107.938 8.232L108.13 8.328C108.642 7.96533 109.164 7.70933 109.698 7.56C110.252 7.41067 110.839 7.336 111.458 7.336C111.906 7.336 112.332 7.368 112.738 7.432C113.399 7.496 114.05 7.72 114.69 8.104C115.351 8.488 115.938 8.968 116.45 9.544C116.983 10.12 117.42 10.7493 117.762 11.432C118.103 12.1147 118.295 12.7867 118.338 13.448V7.368L119.938 8.2ZM123.544 7.688H125.176C124.792 8.904 124.718 10.0987 124.952 11.272C125.187 12.4453 125.582 13.5867 126.136 14.696C126.691 15.8053 127.331 16.8827 128.056 17.928C128.803 18.9733 129.486 19.9867 130.104 20.968L135.928 16.52L135.896 7.208L137.368 8.008V23.208L135.928 24.968L132.472 23.176C132.216 23.432 131.886 23.7733 131.48 24.2C131.075 24.6267 130.659 25.1067 130.232 25.64C129.827 26.1733 129.443 26.7387 129.08 27.336C128.718 27.9333 128.451 28.5307 128.28 29.128C128.131 29.7467 128.11 30.3547 128.216 30.952C128.323 31.5493 128.632 32.104 129.144 32.616C129.464 32.872 129.806 33.0533 130.168 33.16C130.531 33.2667 130.904 33.32 131.288 33.32C131.843 33.32 132.355 33.2347 132.824 33.064C133.315 32.8933 133.774 32.6693 134.2 32.392C134.648 32.1147 135.064 31.7947 135.448 31.432C135.832 31.0693 136.195 30.696 136.536 30.312V30.984C135.918 31.7307 135.267 32.3813 134.584 32.936C133.902 33.512 133.102 33.9173 132.184 34.152C131.822 34.2373 131.406 34.28 130.936 34.28C130.254 34.28 129.592 34.1627 128.952 33.928C128.312 33.6933 127.768 33.3093 127.32 32.776C126.616 31.9227 126.296 31.016 126.36 30.056C126.446 29.096 126.734 28.136 127.224 27.176C127.736 26.2373 128.366 25.32 129.112 24.424C129.88 23.528 130.616 22.728 131.32 22.024L135.928 24.488V17.032L129.016 22.184C128.355 21.0747 127.64 19.976 126.872 18.888C126.126 17.7787 125.464 16.648 124.888 15.496C124.312 14.3227 123.875 13.096 123.576 11.816C123.299 10.536 123.288 9.16 123.544 7.688Z" fill="url(#paint0_linear_14_86)"/>
<defs>
<linearGradient id="paint0_linear_14_86" x1="-1" y1="17" x2="139" y2="17" gradientUnits="userSpaceOnUse">
<stop offset="0.730769" stop-color="#AAB2C1"/>
<stop offset="1" stop-color="white"/>
</linearGradient>
</defs>
</svg>
