<svg width="1512" height="982" viewBox="0 0 1512 982" fill="none" xmlns="http://www.w3.org/2000/svg">
<g opacity="0.2" filter="url(#filter0_f_32_13)">
<circle cx="753.5" cy="199.5" r="444.5" fill="white"/>
</g>
<g opacity="0.6">
<path fill-rule="evenodd" clip-rule="evenodd" d="M1282.91 327.847C1285.16 328.667 1284.33 331.998 1281.99 332.541C1274.92 334.168 1268.71 338.371 1264.58 344.329C1260.44 350.287 1258.67 357.573 1259.62 364.764C1260.56 371.956 1264.15 378.538 1269.69 383.224C1275.22 387.911 1282.31 390.367 1289.56 390.113C1291.71 390.044 1293.13 392.749 1291.36 393.968C1286.07 397.617 1279.92 399.842 1273.52 400.43C1267.11 401.018 1260.66 399.949 1254.79 397.325C1248.92 394.702 1243.82 390.612 1239.99 385.449C1236.15 380.285 1233.71 374.223 1232.89 367.843C1232.08 361.463 1232.92 354.981 1235.33 349.019C1237.74 343.057 1241.65 337.816 1246.67 333.799C1251.69 329.782 1257.67 327.125 1264.01 326.083C1270.36 325.041 1276.87 325.648 1282.91 327.847Z" fill="#1E1E1E"/>
</g>
<g opacity="0.6" clip-path="url(#clip0_32_13)">
<path d="M384.931 211.793C382.218 211.617 379.496 211.983 376.925 212.869C374.354 213.755 371.985 215.144 369.956 216.954C367.918 218.755 366.258 220.942 365.074 223.39C363.89 225.839 363.205 228.498 363.058 231.213L362.988 232.891L361.341 232.793C355.881 232.469 350.516 234.327 346.425 237.959C342.335 241.59 339.855 246.698 339.53 252.158C339.261 257.604 341.139 262.939 344.759 267.017C348.38 271.095 353.455 273.591 358.895 273.969L398.773 276.397C399.599 276.446 400.411 276.164 401.031 275.614C401.65 275.064 402.026 274.291 402.075 273.465L404.386 233.58C404.647 228.123 402.755 222.781 399.116 218.706C395.477 214.631 390.383 212.149 384.931 211.793Z" fill="#1E1E1E"/>
</g>
<g opacity="0.6">
<path d="M1249.42 505C1257.05 496.054 1278.75 519.208 1289 532.083C1299.25 519.208 1320.95 496.054 1328.58 505C1330 506.354 1331.59 510.994 1326.5 517.5C1325.09 519.533 1322.72 525.221 1324.42 534.167C1324.42 536.54 1322.09 540.317 1311.92 536.25C1316.86 539.64 1326.19 548.95 1320.25 557.083C1314.6 564.2 1301.43 572.619 1293.17 552.917L1289 544.583L1284.83 552.917C1276.58 572.619 1263.4 564.2 1257.75 557.083C1251.81 548.95 1261.14 539.64 1266.08 536.25C1255.91 540.317 1253.58 536.54 1253.58 534.167C1255.28 525.221 1252.91 519.533 1251.5 517.5C1246.41 510.994 1248 506.354 1249.42 505Z" fill="#1E1E1E" stroke="#1E1E1E" stroke-width="2" stroke-linecap="round" stroke-linejoin="round"/>
<path d="M1289.07 527.917C1288.03 517.217 1299.24 494.583 1307.75 494.583" stroke="#1E1E1E" stroke-width="2" stroke-linecap="round" stroke-linejoin="round"/>
<path d="M1288.93 527.917C1289.97 517.217 1278.76 494.583 1270.25 494.583" stroke="#1E1E1E" stroke-width="2" stroke-linecap="round" stroke-linejoin="round"/>
</g>
<path opacity="0.6" d="M61.3295 533.14L90.053 555.379L120.081 534.935L107.807 569.125L136.529 591.366L100.219 590.258L87.9428 624.446L77.7764 589.572L41.4672 588.461L71.4933 568.016L61.3295 533.14Z" fill="#1E1E1E"/>
<defs>
<filter id="filter0_f_32_13" x="-91" y="-645" width="1689" height="1689" filterUnits="userSpaceOnUse" color-interpolation-filters="sRGB">
<feFlood flood-opacity="0" result="BackgroundImageFix"/>
<feBlend mode="normal" in="SourceGraphic" in2="BackgroundImageFix" result="shape"/>
<feGaussianBlur stdDeviation="200" result="effect1_foregroundBlur_32_13"/>
</filter>
<clipPath id="clip0_32_13">
<rect width="100" height="100" fill="white" transform="translate(309 247.393) rotate(-41.6)"/>
</clipPath>
</defs>
</svg>
