<svg width="36" height="36" viewBox="0 0 36 36" fill="none" xmlns="http://www.w3.org/2000/svg">
<path d="M8.424 30C7.733 30 7.1565 29.769 6.6945 29.307C6.2325 28.845 6.001 28.268 6 27.576V8.424C6 7.733 6.2315 7.1565 6.6945 6.6945C7.1575 6.2325 7.734 6.001 8.424 6H16.8465V7.5H8.424C8.193 7.5 7.981 7.596 7.788 7.788C7.595 7.98 7.499 8.192 7.5 8.424V27.5775C7.5 27.8075 7.596 28.019 7.788 28.212C7.98 28.405 8.1915 28.501 8.4225 28.5H27.5775C27.8075 28.5 28.019 28.404 28.212 28.212C28.405 28.02 28.501 27.8085 28.5 27.5775V19.1535H30V27.5775C30 28.2675 29.769 28.8435 29.307 29.3055C28.845 29.7675 28.268 29.999 27.576 30H8.424ZM14.6085 22.455L13.5465 21.3915L27.438 7.5H21V6H30V15H28.5V8.562L14.6085 22.455Z" fill="white"/>
</svg>
